<?xml version="1.0" encoding="UTF-8" standalone="no"?><!DOCTYPE svg PUBLIC "-//W3C//DTD SVG 1.1//EN" "http://www.w3.org/Graphics/SVG/1.1/DTD/svg11.dtd"><svg width="100%" height="100%" viewBox="0 0 512 512" version="1.1" xmlns="http://www.w3.org/2000/svg" xmlns:xlink="http://www.w3.org/1999/xlink" xml:space="preserve" xmlns:serif="http://www.serif.com/" style="fill-rule:evenodd;clip-rule:evenodd;stroke-linejoin:round;stroke-miterlimit:2;"><rect id="favicon" x="0" y="-0" width="512" height="512" style="fill:none;"/><g><path d="M320.438,224.307l-76.531,137.501c-5.715,10.214 -12.631,15.321 -20.748,15.321c-6.212,0 -11.016,-2.013 -14.412,-6.038c-3.396,-4.025 -5.094,-9.76 -5.094,-17.204l3.23,-93.095l-45.223,101.016c-4.555,10.214 -11.14,15.321 -19.754,15.321c-6.212,0 -11.078,-2.056 -14.598,-6.167c-3.52,-4.112 -5.28,-9.803 -5.28,-17.074l-2.609,-89.719c0,-15.84 -1.305,-26.509 -3.914,-32.006c-2.609,-5.497 -7.682,-8.245 -15.219,-8.245c-6.709,0 -13.376,3.7 -20.002,11.101c-6.626,7.401 -9.939,14.867 -9.939,22.397c0,6.319 1.864,11.426 5.591,15.321c3.727,3.895 8.614,5.843 14.66,5.843c1.739,0 3.396,-0.043 4.97,-0.13c1.574,-0.087 2.568,-0.13 2.982,-0.13c10.105,0 15.157,4.371 15.157,13.114c0,5.8 -2.857,10.625 -8.572,14.477c-5.715,3.852 -12.921,5.778 -21.618,5.778c-13.418,0 -24.516,-4.804 -33.296,-14.412c-8.78,-9.608 -13.169,-21.77 -13.169,-36.485c0,-17.918 6.978,-33.953 20.934,-48.106c13.956,-14.153 29.755,-21.229 47.397,-21.229c16.151,0 27.85,4.956 35.097,14.867c7.247,9.911 10.871,25.773 10.871,47.586l0.124,10.257l0.745,45.184l44.353,-100.626c4.97,-11.512 12.548,-17.269 22.736,-17.269c5.798,0 10.477,1.796 14.039,5.388c3.562,3.592 5.342,8.375 5.342,14.347l-0.124,1.428l-2.236,98.808l55.907,-100.626l2.609,-5.064c4.555,-8.31 11.554,-12.465 20.996,-12.465l24.227,0c11.513,0 17.269,4.241 17.269,12.724c0,5.713 -2.029,10.192 -6.088,13.438c-4.058,3.246 -9.691,4.869 -16.896,4.869l-13.915,0Z" style="fill:#5eead4;fill-rule:nonzero;"/><path d="M403.637,225.24l11.43,15.061l6.585,8.31c12.755,16.446 19.133,33.845 19.133,52.196c0,17.831 -5.632,33.455 -16.896,46.872c-15.406,18.437 -35.574,27.656 -60.504,27.656c-19.298,0 -35.118,-6.211 -47.459,-18.632c-12.341,-12.421 -18.512,-28.327 -18.512,-47.716c0,-23.717 9.608,-43.496 28.823,-59.337c10.188,-8.396 19.588,-12.594 28.202,-12.594c4.473,0 8.117,1.342 10.933,4.025c2.816,2.683 4.224,6.146 4.224,10.387c0,5.713 -3.23,10.647 -9.691,14.802l-9.939,6.362c-5.715,3.722 -10.477,8.916 -14.287,15.581c-3.81,6.665 -5.715,13.244 -5.715,19.736c0,10.301 3.334,18.805 10.001,25.514c6.667,6.708 15.136,10.063 25.407,10.063c11.347,0 21.203,-4.436 29.569,-13.309c8.365,-8.872 12.548,-19.325 12.548,-31.356c0,-7.617 -1.698,-14.542 -5.094,-20.774c-3.396,-6.232 -10.726,-15.884 -21.99,-28.954c-7.868,-9.089 -13.501,-17.052 -16.896,-23.891l-33.544,0c-11.43,0 -17.145,-4.112 -17.145,-12.335c0,-5.973 2.009,-10.582 6.026,-13.828c4.017,-3.246 9.67,-4.869 16.959,-4.869l21.245,0c1.657,-17.139 9.152,-31.313 22.487,-42.523c13.335,-11.21 29.32,-16.814 47.956,-16.814c13.998,0 25.407,4.025 34.228,12.075c8.821,8.05 13.231,18.481 13.231,31.291c0,17.052 -6.999,30.123 -20.996,39.212c-7.951,5.194 -20.582,7.79 -37.893,7.79l-12.424,0Zm-14.909,-31.032l29.817,0c16.814,0 25.22,-5.107 25.22,-15.321c0,-3.982 -1.719,-7.184 -5.156,-9.608c-3.437,-2.424 -8.013,-3.636 -13.728,-3.636c-8.945,0 -17.083,2.9 -24.413,8.699c-7.33,5.8 -11.244,12.421 -11.741,19.866Z" style="fill:#5eead4;fill-rule:nonzero;"/></g></svg>