<?xml version="1.0" encoding="UTF-8" standalone="no"?><!DOCTYPE svg PUBLIC "-//W3C//DTD SVG 1.1//EN" "http://www.w3.org/Graphics/SVG/1.1/DTD/svg11.dtd"><svg width="100%" height="100%" viewBox="0 0 1572 832" version="1.1" xmlns="http://www.w3.org/2000/svg" xmlns:xlink="http://www.w3.org/1999/xlink" xml:space="preserve" xmlns:serif="http://www.serif.com/" style="fill-rule:evenodd;clip-rule:evenodd;stroke-linejoin:round;stroke-miterlimit:2;"><rect id="Writestream-Logo" serif:id="Writestream Logo" x="-690.155" y="-490.914" width="3000" height="2000" style="fill:none;"/><g><path d="M1017.081,307.137l-274.67,472.2c-20.511,35.077 -45.332,52.615 -74.464,52.615c-22.295,0 -39.536,-6.911 -51.724,-20.734c-12.188,-13.823 -18.282,-33.516 -18.282,-59.081l11.593,-319.705l-162.305,346.904c-16.349,35.077 -39.982,52.615 -70.897,52.615c-22.295,0 -39.759,-7.06 -52.392,-21.18c-12.634,-14.12 -18.95,-33.665 -18.95,-58.635l-9.364,-308.112c0,-54.399 -4.682,-91.036 -14.046,-109.912c-9.364,-18.876 -27.571,-28.314 -54.622,-28.314c-24.078,0 -48.008,12.708 -71.789,38.124c-23.781,25.416 -35.671,51.055 -35.671,76.916c0,21.7 6.688,39.239 20.065,52.615c13.377,13.377 30.915,20.065 52.615,20.065c6.242,0 12.188,-0.149 17.836,-0.446c5.648,-0.297 9.215,-0.446 10.701,-0.446c36.266,0 54.399,15.012 54.399,45.035c0,19.917 -10.256,36.489 -30.767,49.717c-20.511,13.228 -46.373,19.842 -77.585,19.842c-48.156,0 -87.989,-16.498 -119.499,-49.494c-31.51,-32.996 -47.265,-74.761 -47.265,-125.296c0,-61.533 25.044,-116.601 75.133,-165.203c50.089,-48.602 106.791,-72.903 170.108,-72.903c57.966,0 99.954,17.018 125.965,51.055c26.01,34.036 39.016,88.51 39.016,163.42l0.446,35.226l2.675,155.171l159.184,-345.567c17.836,-39.536 45.035,-59.304 81.598,-59.304c20.808,0 37.604,6.168 50.386,18.505c12.782,12.336 19.173,28.76 19.173,49.271l-0.446,4.905l-8.026,339.324l200.652,-345.567l9.364,-17.39c16.349,-28.537 41.468,-42.806 75.356,-42.806l86.949,0c41.319,0 61.979,14.566 61.979,43.697c0,19.619 -7.283,35.003 -21.849,46.15c-14.566,11.147 -34.78,16.721 -60.641,16.721l-49.94,0Z" style="fill:#5eead4;fill-rule:nonzero;"/><path d="M1315.682,310.341l41.022,51.724l23.632,28.537c45.778,56.48 68.667,116.229 68.667,179.249c0,61.236 -20.214,114.892 -60.641,160.967c-55.291,63.317 -127.674,94.975 -217.15,94.975c-69.262,0 -126.039,-21.329 -170.331,-63.986c-44.292,-42.657 -66.438,-97.279 -66.438,-163.865c0,-81.45 34.482,-149.374 103.447,-203.773c36.563,-28.834 70.302,-43.252 101.218,-43.252c16.052,0 29.132,4.608 39.239,13.823c10.107,9.215 15.16,21.106 15.16,35.671c0,19.619 -11.593,36.563 -34.78,50.832l-35.671,21.849c-20.511,12.782 -37.604,30.618 -51.278,53.507c-13.674,22.889 -20.511,45.481 -20.511,67.776c0,35.374 11.965,64.58 35.894,87.618c23.93,23.038 54.325,34.557 91.185,34.557c40.725,0 76.099,-15.235 106.122,-45.704c30.023,-30.469 45.035,-66.364 45.035,-107.683c0,-26.159 -6.094,-49.94 -18.282,-71.343c-12.188,-21.403 -38.495,-54.548 -78.923,-99.434c-28.24,-31.212 -48.454,-58.561 -60.641,-82.044l-120.391,0c-41.022,0 -61.533,-14.12 -61.533,-42.36c0,-20.511 7.209,-36.34 21.626,-47.488c14.417,-11.147 34.705,-16.721 60.864,-16.721l76.248,0c5.945,-58.858 32.847,-107.534 80.707,-146.03c47.859,-38.495 105.231,-57.743 172.114,-57.743c50.237,0 91.185,13.823 122.843,41.468c31.658,27.645 47.488,63.465 47.488,107.46c0,58.561 -25.119,103.447 -75.356,134.66c-28.537,17.836 -73.87,26.754 -135.997,26.754l-44.589,0Zm-53.507,-106.568l107.014,0c60.344,0 90.516,-17.538 90.516,-52.615c0,-13.674 -6.168,-24.673 -18.505,-32.996c-12.336,-8.323 -28.76,-12.485 -49.271,-12.485c-32.104,0 -61.31,9.958 -87.618,29.875c-26.308,19.917 -40.353,42.657 -42.137,68.222Z" style="fill:#5eead4;fill-rule:nonzero;"/></g></svg>